Coordinates
version=1
nRows=19
nColumns=33
inDegrees=yes

Units are S.I. units (second, meters, Newtons, ...)
Angles are in degrees.

endheader
time	ground_thorax_rot_x	ground_thorax_rot_y	ground_thorax_rot_z	ground_thorax_tx	ground_thorax_ty	ground_thorax_tz	clav_prot_r	clav_elev_r	scapula_abduction_r	scapula_elevation_r	scapula_upward_rot_r	scapula_winging_r	shoulder_elv_r	plane_of_elev_r	axial_rot_r	elbow_flexion_r	pro_sup_r	wrist_flex_r	wrist_dev_r	clav_prot_l	clav_elev_l	scapula_abduction_l	scapula_elevation_l	scapula_upward_rot_l	scapula_winging_l	shoulder_elv_l	plane_of_elev_l	axial_rot_l	elbow_flexion_l	pro_sup_l	wrist_flex_l	wrist_dev_l	
6.0800	38.492989	5.651927	8.856926	-69.422001	769.039907	11.878263	17.035703	38.545878	44.999978	39.671088	-25.034517	-2961.898063	-4074.981182	145.322195	180.000000	1445.642026	47.559860	20.079695	13.502010	4.415497	-45.000000	-44.999979	45.000000	-26.681341	803.532517	-2978.272123	134.580772	-180.000000	726.770395	-319.655634	8.921071	-19.896345	
6.0900	38.480568	5.739856	8.935243	-69.776241	769.022457	11.838749	17.096482	38.551062	44.999961	39.664522	-25.211710	-2961.867736	-4074.948710	145.316556	180.000000	1445.763333	48.036630	20.181433	13.411435	4.516432	-45.000000	-44.999962	45.000000	-26.872881	803.532769	-2978.278543	134.584643	-180.000000	726.803104	-319.828640	8.915568	-19.937456	
6.1000	38.490221	5.814142	8.993503	-70.156073	769.000129	11.796765	17.185242	38.562108	44.999931	39.704544	-25.391641	-2961.880730	-4074.965286	145.249929	180.000000	1445.855918	48.502330	20.315829	13.367605	4.647127	-45.000000	-44.999932	45.000000	-27.054009	803.577555	-2978.295874	134.523687	-180.000000	726.767795	-320.005104	8.860853	-20.029231	
6.1100	38.476658	5.879935	9.037057	-70.593733	768.967835	11.749193	17.230632	38.554539	44.999875	39.713139	-25.538446	-2961.881429	-4074.961814	145.206754	180.000000	1445.943739	48.918290	20.422233	13.314820	4.721796	-45.000000	-44.999878	45.000000	-27.188755	803.610929	-2978.307140	134.493022	-180.000000	726.757132	-320.165572	8.855658	-20.071317	
6.1200	38.458377	5.937368	9.068871	-71.091150	768.925340	11.696199	17.253532	38.528883	44.999777	39.726096	-25.669392	-2961.868775	-4074.958758	145.183601	180.000000	1446.032573	49.284506	20.513018	13.260079	4.769848	-45.000000	-44.999781	45.000000	-27.304845	803.635561	-2978.313927	134.480864	-180.000000	726.751589	-320.314727	8.875483	-20.092950	
6.1300	38.429031	5.989705	9.095141	-71.654442	768.872331	11.637702	17.267616	38.505079	44.999598	39.730054	-25.796710	-2961.876088	-4074.960428	145.144901	180.000000	1446.109287	49.599019	20.600944	13.224247	4.804282	-45.000000	-44.999608	45.000000	-27.398838	803.686311	-2978.322823	134.459843	-180.000000	726.736805	-320.457461	8.898600	-20.107947	
6.1400	38.399174	6.041185	9.123217	-72.281462	768.810495	11.574613	17.268154	38.466390	44.999289	39.744976	-25.925897	-2961.860049	-4074.956328	145.139615	180.000000	1446.197098	49.857913	20.671039	13.180154	4.826730	-45.000000	-44.999297	45.000000	-27.501771	803.722395	-2978.325912	134.467644	-180.000000	726.736081	-320.593014	8.940828	-20.110132	
6.1500	38.365084	6.098392	9.161290	-72.966458	768.742815	11.508248	17.278552	38.440015	44.998703	39.758768	-26.074666	-2961.868901	-4074.955398	145.115854	180.000000	1446.280032	50.068800	20.745213	13.156815	4.859731	-45.000000	-44.998741	45.000000	-27.611403	803.790654	-2978.334792	134.462213	-180.000000	726.728396	-320.730374	8.967393	-20.123169	
6.1600	38.330402	6.160527	9.206656	-73.703950	768.672940	11.439744	17.284347	38.408169	44.997740	39.778307	-26.233547	-2961.863667	-4074.942892	145.116479	180.000000	1446.374490	50.228690	20.801849	13.124676	4.890407	-45.000000	-44.997746	45.000000	-27.738646	803.852423	-2978.338701	134.477156	-180.000000	726.741344	-320.864628	9.006483	-20.125406	
6.1700	38.289880	6.229588	9.258972	-74.488902	768.604900	11.369893	17.299538	38.392090	44.995776	39.793315	-26.406595	-2961.889573	-4074.932999	145.091165	180.000000	1446.457867	50.343917	20.863406	13.116492	4.928922	-45.000000	-44.995958	45.000000	-27.863618	803.949639	-2978.348493	134.472965	-180.000000	726.747822	-320.999494	9.029219	-20.134990	
6.1800	38.250216	6.298447	9.310756	-75.316812	768.543006	11.299016	17.311715	38.372736	44.992924	39.818737	-26.585211	-2961.908440	-4074.919357	145.075287	180.000000	1446.542650	50.411527	20.910311	13.105928	4.966095	-45.000000	-44.992771	45.000000	-27.998868	804.046543	-2978.349899	134.473016	-180.000000	726.762310	-321.127256	9.058959	-20.137040	
6.1900	38.205375	6.375717	9.371297	-76.184169	768.491725	11.226986	17.327636	38.361834	44.985954	39.845340	-26.774584	-2961.942545	-4074.909076	145.048087	180.000000	1446.621346	50.435070	20.961421	13.114481	5.006122	-45.000000	-44.987017	45.000000	-28.136694	804.162749	-2978.352844	134.467576	-180.000000	726.773816	-321.250274	9.075905	-20.146042	
6.2000	38.158814	6.452912	9.430926	-77.088238	768.455606	11.153308	17.341191	38.350381	44.978668	39.876674	-26.975742	-2961.976055	-4074.894783	145.018124	180.000000	1446.694713	50.415137	20.998037	13.123165	5.047198	-45.000000	-44.976839	45.000000	-28.291434	804.285267	-2978.343177	134.453486	-180.000000	726.790365	-321.363082	9.096108	-20.149407	
6.2100	38.109834	6.541888	9.505186	-78.027388	768.439213	11.077312	17.353553	38.332315	44.969829	39.910321	-27.187085	-2962.008752	-4074.875452	144.996082	180.000000	1446.763621	50.355020	21.036724	13.144500	5.086497	-45.000000	-44.958248	45.000000	-28.463076	804.406209	-2978.331204	134.452762	-180.000000	726.810479	-321.468945	9.108448	-20.160978	
6.2200	38.064747	6.634602	9.584616	-79.000504	768.447032	10.998269	17.363981	38.313533	44.960962	39.952593	-27.419129	-2962.037388	-4074.844380	144.969682	180.000000	1446.828639	50.257645	21.059881	13.162240	5.125239	-45.000000	-44.925945	45.000000	-28.673320	804.527145	-2978.304947	134.442498	-180.000000	726.839568	-321.566212	9.123479	-20.169631	
6.2300	38.024927	6.749486	9.692811	-80.007539	768.483394	10.915481	17.373044	38.285321	44.944357	40.009373	-27.669668	-2962.046590	-4074.800013	144.967165	180.000000	1446.900180	50.126660	21.086576	13.184617	5.155576	-45.000000	-44.865293	45.000000	-28.928906	804.622449	-2978.275204	134.462523	-180.000000	726.881685	-321.659890	9.133831	-20.188421	
6.2400	37.996469	6.882337	9.824428	-81.048883	768.552330	10.828216	17.388613	38.273801	44.916631	40.094726	-27.971783	-2962.050176	-4074.747106	144.942811	180.000000	1446.970438	49.967024	21.102133	13.204940	5.185801	-45.000000	-44.764431	45.000000	-29.258098	804.718973	-2978.234594	134.458975	-180.000000	726.930661	-321.750454	9.141559	-20.203474	
6.2500	37.981656	7.050381	10.004819	-82.125607	768.657522	10.735686	17.407689	38.263903	44.861865	40.222983	-28.327639	-2962.013202	-4074.682401	144.930620	180.000000	1447.052812	49.782246	21.121396	13.225280	5.205087	-45.000000	-44.600294	45.000000	-29.686198	804.778000	-2978.186128	134.474940	-180.000000	726.992621	-321.841730	9.145478	-20.226851	
6.2600	37.985014	7.259299	10.238663	-83.238843	768.802213	10.636943	17.439157	38.286772	44.765985	40.413006	-28.781206	-2961.939694	-4074.604643	144.882911	180.000000	1447.142492	49.578340	21.129395	13.237646	5.227431	-45.000000	-44.363606	45.000000	-30.248418	804.826033	-2978.123256	134.461140	-180.000000	727.060247	-321.936143	9.145624	-20.245141	
